<svg xmlns="http://www.w3.org/2000/svg" width="660" height="660" viewBox="0 0 660 660">
  <metadata><?xpacket begin="﻿" id="W5M0MpCehiHzreSzNTczkc9d"?>
<x:xmpmeta xmlns:x="adobe:ns:meta/" x:xmptk="Adobe XMP Core 5.6-c138 79.159824, 2016/09/14-01:09:01        ">
   <rdf:RDF xmlns:rdf="http://www.w3.org/1999/02/22-rdf-syntax-ns#">
      <rdf:Description rdf:about=""/>
   </rdf:RDF>
</x:xmpmeta>
                                                                                                    
                                                                                                    
                                                                                                    
                                                                                                    
                                                                                                    
                                                                                                    
                                                                                                    
                                                                                                    
                                                                                                    
                                                                                                    
                                                                                                    
                                                                                                    
                                                                                                    
                                                                                                    
                                                                                                    
                                                                                                    
                                                                                                    
                                                                                                    
                                                                                                    
                                                                                                    
                           
<?xpacket end="w"?></metadata>
<defs>
    <style>
      .cls-1 {
        fill: #fff;
        fill-rule: evenodd;
      }
    </style>
  </defs>
  <path class="cls-1" d="M267,431V229L431,330ZM2,356s2.24,80.388,7,101,2.877,70.321,78,90c45.6,6.419,169.287,8.829,182,9s174.224,0.149,210-2,58.662-3.12,81-6,73.82-13.9,85-68,12.748-112.548,13-144-5.581-121.023-11-151-30.51-65.122-73-71-129.965-9.272-209-10-212.756,1.349-253,7c-6.212.26-25.477,2.921-31,4s-62.844,13.517-70,79c-1.912,14.714-3.767,23.584-5,41S1.163,302.43,2,356Z"/>
</svg>
